<svg id="Layer_1" data-name="Layer 1" xmlns="http://www.w3.org/2000/svg" viewBox="0 0 711.7 274.84">
  <defs>
    <style>.cls-1{fill:red;}</style>
  </defs>
  <title>Airtel_Developer</title>
  <path class="cls-1" d="M290.34,218.79q-2.67,0-2.67-2.58v-50.9c0-1.73.89-2.59,2.67-2.59h15.59a36,36,0,0,1,11.35,1.69,22.31,22.31,0,0,1,14.43,13.86,35.4,35.4,0,0,1,2,12.57,34.77,34.77,0,0,1-2,12.44,22.31,22.31,0,0,1-14.43,13.82,36,36,0,0,1-11.35,1.69Zm38-27.95a29.51,29.51,0,0,0-1.69-10.51,19.81,19.81,0,0,0-4.73-7.35,19.49,19.49,0,0,0-7.23-4.36,28.24,28.24,0,0,0-9.29-1.46H292.6v47.19h12.77a29.74,29.74,0,0,0,9.41-1.41,18.72,18.72,0,0,0,7.23-4.33,19.78,19.78,0,0,0,4.65-7.35A29.91,29.91,0,0,0,328.31,190.84Z"/>
  <path class="cls-1" d="M347.38,192.37v22h30.79c1.23,0,1.85.73,1.85,2.18s-.62,2.26-1.85,2.26H345a2.28,2.28,0,0,1-2.59-2.58v-50.9a2.29,2.29,0,0,1,2.59-2.59h33.13c1.23,0,1.85.73,1.85,2.18s-.62,2.26-1.85,2.26H347.38v20.77h29.17c1.24,0,1.86.72,1.86,2.18s-.62,2.26-1.86,2.26Z"/>
  <path class="cls-1" d="M409.84,217.82c-.38,1-1.38,1.54-3,1.54a4.23,4.23,0,0,1-2.06-.4,2.36,2.36,0,0,1-1-1.22L384.14,167c-.21-.48-.4-1-.56-1.41a3.87,3.87,0,0,1-.24-1.26,1.77,1.77,0,0,1,1-1.61,4.1,4.1,0,0,1,2.11-.57,1.75,1.75,0,0,1,1.69,1.38l18.83,49.69,19-49.69a1.75,1.75,0,0,1,1.69-1.38,4.27,4.27,0,0,1,2,.49,1.55,1.55,0,0,1,.93,1.45,3.48,3.48,0,0,1-.24,1.09q-.24.69-.57,1.5Z"/>
  <path class="cls-1" d="M442.16,192.37v22h30.78c1.24,0,1.86.73,1.86,2.18s-.62,2.26-1.86,2.26H439.81a2.28,2.28,0,0,1-2.58-2.58v-50.9a2.28,2.28,0,0,1,2.58-2.59h33.13c1.24,0,1.86.73,1.86,2.18s-.62,2.26-1.86,2.26H442.16v20.77h29.16c1.24,0,1.86.72,1.86,2.18s-.62,2.26-1.86,2.26Z"/>
  <path class="cls-1" d="M482.8,164.58a2.34,2.34,0,0,1,.64-1.9,3.25,3.25,0,0,1,3.56,0,2.34,2.34,0,0,1,.65,1.9v49.77h29.16c1.24,0,1.86.73,1.86,2.18s-.62,2.26-1.86,2.26H485.38a2.28,2.28,0,0,1-2.58-2.58Z"/>
  <path class="cls-1" d="M571.27,190.68A36.49,36.49,0,0,1,569.33,203a27.38,27.38,0,0,1-5.41,9.29,23.1,23.1,0,0,1-8.32,5.86,29.72,29.72,0,0,1-21.54,0,23,23,0,0,1-8.36-5.86,26.82,26.82,0,0,1-5.37-9.29,40.8,40.8,0,0,1,0-24.61,26.54,26.54,0,0,1,5.37-9.21,23.26,23.26,0,0,1,8.36-5.82,29.86,29.86,0,0,1,21.54,0,23.37,23.37,0,0,1,8.32,5.82,27.1,27.1,0,0,1,5.41,9.21A36.15,36.15,0,0,1,571.27,190.68Zm-47.43,0a36.4,36.4,0,0,0,1.34,10.22,22,22,0,0,0,4,7.83,17.72,17.72,0,0,0,6.58,5.05,24.1,24.1,0,0,0,18.18,0,17.83,17.83,0,0,0,6.59-5.05,22.13,22.13,0,0,0,4-7.83,36.78,36.78,0,0,0,1.33-10.22,36.4,36.4,0,0,0-1.33-10.14,21.66,21.66,0,0,0-4-7.8,18.05,18.05,0,0,0-6.59-5,24.1,24.1,0,0,0-18.18,0,17.93,17.93,0,0,0-6.58,5,21.5,21.5,0,0,0-4,7.8A36,36,0,0,0,523.84,190.68Z"/>
  <path class="cls-1" d="M582.42,219.36a2.56,2.56,0,0,1-1.73-.53,2.39,2.39,0,0,1-.61-1.89V165.31a2.29,2.29,0,0,1,2.59-2.59h14.94q10.83,0,15.88,4.28t5,12.2a19.9,19.9,0,0,1-.77,5.05,13.23,13.23,0,0,1-2.95,5.37,17.07,17.07,0,0,1-6.1,4.25,25.43,25.43,0,0,1-10.22,1.73H585v21.34a2.17,2.17,0,0,1-.73,1.89A3.08,3.08,0,0,1,582.42,219.36Zm14.22-28a29.88,29.88,0,0,0,8-.89,13.51,13.51,0,0,0,5.09-2.46,8.39,8.39,0,0,0,2.67-3.84,15.3,15.3,0,0,0,.77-4.93,15,15,0,0,0-.77-4.89,9.26,9.26,0,0,0-2.59-3.88,12.13,12.13,0,0,0-4.84-2.54,27.39,27.39,0,0,0-7.56-.89H585v24.32Z"/>
  <path class="cls-1" d="M631.39,192.37v22h30.78c1.24,0,1.86.73,1.86,2.18s-.62,2.26-1.86,2.26H629a2.28,2.28,0,0,1-2.58-2.58v-50.9a2.28,2.28,0,0,1,2.58-2.59h33.13c1.24,0,1.86.73,1.86,2.18s-.62,2.26-1.86,2.26H631.39v20.77h29.17c1.23,0,1.85.72,1.85,2.18s-.62,2.26-1.85,2.26Z"/>
  <path class="cls-1" d="M711.14,215.4a3.51,3.51,0,0,1,.48,1,4.06,4.06,0,0,1,.08.73,1.83,1.83,0,0,1-.81,1.61,3.27,3.27,0,0,1-1.94.57,1.85,1.85,0,0,1-1.33-.49,6.47,6.47,0,0,1-1.17-1.69l-12.28-23.11H677v22.87a2.2,2.2,0,0,1-.73,1.89,3.12,3.12,0,0,1-1.86.53,2.6,2.6,0,0,1-1.74-.53,2.43,2.43,0,0,1-.6-1.89V165.31a2.41,2.41,0,0,1,.73-2,2.88,2.88,0,0,1,1.93-.61H689.8q10.92,0,15.84,3.92t4.93,11.83a19.23,19.23,0,0,1-.44,3.88,13.26,13.26,0,0,1-1.66,4.12,14.25,14.25,0,0,1-3.44,3.8,17.61,17.61,0,0,1-5.77,2.91ZM677,167v22.79h13.25a29.48,29.48,0,0,0,7.07-.73,11.53,11.53,0,0,0,4.6-2.18,8.26,8.26,0,0,0,2.51-3.56,15.5,15.5,0,0,0,0-9.65,7.92,7.92,0,0,0-2.59-3.6,13.1,13.1,0,0,0-4.85-2.26,30.13,30.13,0,0,0-7.63-.81Z"/>
  <path class="cls-1" d="M59.88,141.44a8.73,8.73,0,0,0-8.72,8.71A8.6,8.6,0,1,0,66,144.05a8.35,8.35,0,0,0-6.12-2.61"/>
  <polyline class="cls-1" points="52.98 217.87 66.5 217.87 66.5 163.26 52.98 165.5"/>
  <path class="cls-1" d="M29.11,207.56a13.22,13.22,0,0,1-7,1.76c-5.44,0-7.89-4.22-7.79-9.15.09-4.08,2.6-8.71,9.39-8.71h5.42m-5.59-29.18c-6.46,0-12.26,1.86-18.23,4.87l-1.52.79,3.63,8.22,2.06-1c4.21-1.92,8.72-3.2,12.77-3,4.89.21,6.9,2.49,6.9,7.25v2.78h-8C8.24,182.17.22,189.1,0,199.85c0,10.21,8.39,19,20.07,19,9.42,0,17.4-3.1,22.79-8.56V181.15c0-14.2-10-18.87-19.34-18.87"/>
  <path class="cls-1" d="M163.08,172.92c6,0,6.9,6.61,6.9,10.72H155.34c.23-5.28,2.4-10.72,7.74-10.72M166,209.23c-3.71,0-6.21-1.23-7.85-3-2.43-2.67-3.51-8.15-3.22-14h29.15v-1.36c-.26-19.36-6.76-28.17-21-28.17-15.9,0-22.09,14.83-22.21,28.77-.1,8.81,3.18,17.68,9.19,22.74,3.64,3.07,8.7,4.78,14.57,4.78a32.4,32.4,0,0,0,9.59-1.44,38.56,38.56,0,0,0,10.17-5l-3.83-8A25.79,25.79,0,0,1,166,209.23"/>
  <path class="cls-1" d="M77.32,173.05v44.86H91.09V175.68c1.8-1.78,5.63-3.34,9.24-3.49a17.63,17.63,0,0,1,5.55.57l3.81-8.68a23.17,23.17,0,0,0-9.11-1.66c-5.94,0-15,1.77-23.26,10.63"/>
  <path class="cls-1" d="M212.75,209.27c-5.62-.44-6.8-2.94-6.8-7.12v-54l-13.56,2.35v50.79c0,12,6.45,17.2,17.24,17.2a32.32,32.32,0,0,0,5.17-.56v-8.62s-1.27,0-2.05,0"/>
  <path class="cls-1" d="M127.2,148.21l-13.87,2.26v51c0,11.43,6.59,16.84,17.63,16.84a29.11,29.11,0,0,0,5.15-.51v-8.5c-.15,0-1.17,0-2,0-5.82-.2-7-3.46-7-7.21V173.37h8.91V163.29H127.2"/>
  <path class="cls-1" d="M97.81,110.54c7.07-2.59,12.67-6.18,18.08-9.64l1.46-.94a133.76,133.76,0,0,0,17.06-13c12.72-11.28,20.35-22.34,24.72-35.86,1.78-5.47,4.29-16.16,1.21-26.18a33.76,33.76,0,0,0-13-17.85c-.72-.62-8.64-7-23.56-7C110.17,0,95.21,5.34,79.34,15.89l-.51.34-.08.05-1.41.9a11.72,11.72,0,0,1-1.22.83,94.77,94.77,0,0,0-9.23,7.22C60.2,31.81,52.55,42.8,53,52.13a12.57,12.57,0,0,0,4.83,9.6A15.81,15.81,0,0,0,67.93,65c8.13,0,17-4.49,23.14-8.29.37-.26.75-.53,1.15-.79,1.06-.7,2.12-1.43,3.18-2.14l1-.72c8.65-5.89,17.61-12,27.71-15.52a20.86,20.86,0,0,1,7-1.37,13.18,13.18,0,0,1,3,.34,9.41,9.41,0,0,1,6.66,5.28c2.33,4.83,1.78,12.46-1.41,19.44-4.34,9.52-11.81,18.9-22.17,27.88a87.73,87.73,0,0,1-14.5,10.5l-.4.22a54.45,54.45,0,0,1-6.71,3.32l-.33.13-1.88.7c-10.14,2.75-4-6.3-4-6.3a78,78,0,0,1,6.91-7.12c1.38-1.3,2.8-2.64,4.22-4.1l.32-.32c1.76-1.8,4.19-4.25,4-7.79-.2-4.68-4.89-7.6-9.28-7.72h-.33c-4.23,0-8.25,2.52-10.86,4.64a35.62,35.62,0,0,0-7.28,8.33c-2.7,4.34-8.37,15.4-2.84,24.25,2.21,3.54,5.9,5.33,11,5.33a37.1,37.1,0,0,0,12.45-2.61"/>
  <rect class="cls-1" x="250.6" y="106.67" width="1.28" height="168.16"/>
</svg>